# xmcd CD database file
#
# Track frame offsets:
#	150
#	21857
#	63000
#	92190
#	110342
#	148562
#	175985
#
# Disc length: 2751 seconds
#
# Revision: 3
# Processed by: cddbd v1.4PL0 Copyright (c) Steve Scherf et al.
# Submitted via: CDex 1.50beta9
#
DISCID=560abd07
DTITLE=John Mayall - Behind The Iron Curtain
DYEAR=1991
DGENRE=Blues
TTITLE0=Somebody's Acting  Like A Child
TTITLE1=Rolling With The Blues
TTITLE2=The Laws Must Change
TTITLE3=Parchman Farm
TTITLE4=Have You Heard
TTITLE5=Fly Tomorrow
TTITLE6=Steppin' Out
EXTD=YEAR: 1991
EXTT0=
EXTT1=
EXTT2=
EXTT3=
EXTT4=
EXTT5=
EXTT6=
PLAYORDER=
